<?xml version="1.0" standalone="no"?>
<!DOCTYPE svg PUBLIC "-//W3C//DTD SVG 20010904//EN"
 "http://www.w3.org/TR/2001/REC-SVG-20010904/DTD/svg10.dtd">
<svg version="1.0" xmlns="http://www.w3.org/2000/svg"
 width="512.000000pt" height="512.000000pt" viewBox="0 0 512.000000 512.000000"
 preserveAspectRatio="xMidYMid meet">

<g transform="translate(0.000000,512.000000) scale(0.100000,-0.100000)"
fill="#000000" stroke="none">
<path d="M623 4696 c-88 -28 -172 -114 -199 -203 -12 -38 -14 -204 -14 -940
l0 -893 1025 0 1025 0 0 1025 0 1025 -897 -1 c-713 0 -907 -3 -940 -13z m952
-610 c57 -24 65 -53 65 -236 l0 -160 155 0 c180 0 215 -9 241 -63 20 -41 14
-75 -20 -114 l-24 -28 -175 -3 -176 -3 -3 -176 -3 -175 -28 -24 c-39 -34 -73
-40 -114 -20 -54 26 -63 61 -63 241 l0 155 -160 0 c-182 0 -212 8 -236 65 -11
28 -12 41 -1 72 20 63 53 73 240 73 l157 0 0 158 c0 183 10 219 70 239 19 7
36 12 38 12 1 1 18 -5 37 -13z"/>
<path d="M2660 3685 l0 -1025 1025 0 1025 0 -2 913 -3 912 -23 47 c-30 60 -90
120 -150 150 l-47 23 -912 3 -913 2 0 -1025z m667 285 c9 0 71 -54 137 -120
l122 -120 114 115 c68 68 128 119 146 125 74 25 149 -50 124 -124 -6 -18 -57
-78 -125 -146 l-115 -115 115 -115 c127 -127 144 -158 120 -216 -7 -18 -27
-40 -45 -49 -58 -30 -84 -16 -215 115 l-119 120 -121 -119 c-66 -65 -130 -122
-143 -126 -76 -23 -157 68 -122 136 7 13 63 76 126 139 l114 115 -120 120
c-131 131 -145 157 -115 215 17 32 69 63 93 55 8 -3 21 -5 29 -5z"/>
<path d="M412 1548 l3 -913 23 -47 c30 -60 90 -120 150 -150 l47 -23 913 -3
912 -2 0 1025 0 1025 -1025 0 -1025 0 2 -912z m1179 489 c68 -45 59 -141 -16
-173 -67 -28 -135 17 -135 88 0 51 14 76 53 93 44 20 59 18 98 -8z m425 -430
c34 -39 40 -73 20 -114 -30 -62 -37 -63 -503 -63 -378 0 -421 2 -453 18 -69
34 -72 132 -6 173 30 18 52 19 474 17 l444 -3 24 -28z m-425 -387 c30 -17 52
-68 45 -106 -8 -39 -57 -84 -92 -84 -33 0 -81 25 -94 49 -5 11 -10 38 -10 59
0 33 6 45 31 66 33 28 85 34 120 16z"/>
<path d="M2660 1435 l0 -1025 913 2 912 3 47 23 c60 30 120 90 150 150 l23 47
3 913 2 912 -1025 0 -1025 0 0 -1025z m1381 189 c70 -36 70 -141 -1 -176 -32
-16 -75 -18 -453 -18 -461 0 -472 1 -502 60 -28 54 -1 122 55 143 8 3 208 6
443 6 370 1 432 -1 458 -15z"/>
</g>
</svg>
